<svg width="25" height="25" viewBox="0 0 25 25" fill="none" xmlns="http://www.w3.org/2000/svg">
<path d="M12.7715 24.7224C19.3989 24.7224 24.7715 19.3498 24.7715 12.7224C24.7715 6.095 19.3989 0.722412 12.7715 0.722412C6.14407 0.722412 0.771484 6.095 0.771484 12.7224C0.771484 19.3498 6.14407 24.7224 12.7715 24.7224Z" fill="#0467FB"/>
<path d="M17.4426 16.1921L17.9742 12.7226H14.6464V10.4714C14.6464 9.523 15.1104 8.59655 16.6022 8.59655H18.1159V5.64338C18.1159 5.64338 16.7423 5.40881 15.4294 5.40881C12.6888 5.40881 10.8967 7.06934 10.8967 10.0782V12.7226H7.849V16.1921H10.8967V24.5774C11.5076 24.6736 12.1336 24.7225 12.7715 24.7225C13.4094 24.7225 14.0355 24.6719 14.6464 24.5774V16.1921H17.4426Z" fill="white"/>
</svg>
