<svg width="25" height="25" viewBox="0 0 25 25" fill="none" xmlns="http://www.w3.org/2000/svg">
<path d="M2.00361 7.40723C2.15883 7.07543 2.33907 6.75726 2.52993 6.44511C3.11951 5.48064 3.83248 4.61729 4.66676 3.8548C5.50718 3.08667 6.43852 2.45138 7.4605 1.94916C8.29228 1.54034 9.16009 1.23304 10.0634 1.0266C10.612 0.901247 11.167 0.815449 11.728 0.767637C12.2548 0.722708 12.7822 0.710788 13.3101 0.733973C13.9229 0.760826 14.5304 0.834442 15.1318 0.956393C16.2331 1.17973 17.2813 1.55305 18.2767 2.07426C19.1281 2.52001 19.9148 3.06074 20.643 3.68752C20.6769 3.71673 20.6737 3.73101 20.6442 3.76035C19.5048 4.89826 18.3662 6.03656 17.2292 7.17682C17.1887 7.21743 17.1704 7.19712 17.141 7.17355C16.4924 6.65326 15.7758 6.25649 14.987 5.99189C14.1894 5.72428 13.3702 5.60744 12.5294 5.63652C11.3645 5.6766 10.2717 5.97722 9.26108 6.55711C7.85766 7.36243 6.84406 8.51697 6.2161 10.0084C6.14956 10.1664 6.09336 10.3287 6.03232 10.489C6.00455 10.4933 5.98831 10.4725 5.96997 10.4585C5.39846 10.022 4.82683 9.58545 4.25597 9.14808C3.92038 8.89095 3.58387 8.63486 3.24788 8.37826C2.85478 8.0779 2.46273 7.77623 2.06897 7.47679C2.04395 7.45766 2.01212 7.44273 2.00348 7.40723H2.00361Z" fill="#FD2C25"/>
<path d="M20.5911 21.7328C20.2986 22.0114 19.9864 22.2663 19.6619 22.5066C18.7212 23.2027 17.6936 23.7317 16.5856 24.1053C15.9904 24.306 15.3824 24.4557 14.7627 24.5587C13.9206 24.6986 13.0732 24.7482 12.2209 24.7101C11.7152 24.6874 11.2129 24.6324 10.7136 24.5471C9.51371 24.3421 8.37201 23.9632 7.28859 23.4094C6.19156 22.8485 5.20481 22.134 4.32836 21.2678C3.38511 20.3356 2.61816 19.2756 2.02596 18.089C2.01718 18.0714 2.00959 18.0535 2.00146 18.0356C2.00723 18.007 2.03081 17.9937 2.05137 17.9777C2.5862 17.5646 3.12431 17.1557 3.66058 16.7442C4.33517 16.2267 5.00977 15.7091 5.68515 15.1926C5.77868 15.1211 5.87155 15.0488 5.96521 14.9774C5.98433 14.9629 6.0011 14.9371 6.0324 14.9481C6.16169 15.3201 6.3084 15.6849 6.49558 16.0322C7.34217 17.6034 8.596 18.7159 10.2619 19.3572C11.1515 19.6996 12.0768 19.8381 13.0291 19.8099C13.9887 19.7815 14.9206 19.619 15.8129 19.2553C16.1441 19.1202 16.4605 18.9558 16.7646 18.7679C16.7949 18.7633 16.8128 18.786 16.8326 18.8013C17.3063 19.1682 17.7806 19.5342 18.2537 19.9016C18.5893 20.1621 18.9256 20.4216 19.2617 20.6815C19.6891 21.012 20.1149 21.3444 20.5437 21.6732C20.5641 21.6889 20.5864 21.7043 20.5912 21.733L20.5911 21.7328Z" fill="#00AB46"/>
<path d="M20.591 21.7327C19.9524 21.2378 19.3137 20.7431 18.6751 20.2482C18.0382 19.7547 17.4014 19.2612 16.7645 18.7676C16.9669 18.6281 17.1691 18.4889 17.3584 18.3311C17.9953 17.8005 18.4801 17.1554 18.818 16.3994C18.9858 16.0243 19.1083 15.6342 19.195 15.2326C19.203 15.1954 19.1993 15.1785 19.1581 15.1822C19.1408 15.1837 19.1232 15.1824 19.1057 15.1824C17.0221 15.1824 14.9386 15.182 12.8552 15.1841C12.7862 15.1841 12.7709 15.1658 12.771 15.0987C12.773 13.6043 12.7731 12.1098 12.7708 10.6153C12.7708 10.5474 12.7892 10.5349 12.8531 10.5349C16.527 10.5365 20.201 10.5366 23.8749 10.5349C23.9394 10.5349 23.9639 10.5529 23.9766 10.616C24.0504 10.9794 24.1157 11.3438 24.1642 11.7117C24.2294 12.2083 24.2368 12.7066 24.223 13.2055C24.215 13.4949 24.1985 13.7845 24.1721 14.0728C24.0364 15.5505 23.6908 16.9741 23.063 18.3237C22.6636 19.1824 22.1656 19.9789 21.5625 20.7096C21.2734 21.06 20.9613 21.3888 20.632 21.7014C20.6196 21.7132 20.6047 21.7222 20.591 21.7325V21.7327Z" fill="#2A83FB"/>
<path d="M6.03225 14.9479C5.70386 15.1988 5.37521 15.4492 5.04708 15.7004C4.2318 16.3247 3.41678 16.9494 2.60177 17.574C2.40148 17.7275 2.20146 17.8815 2.00131 18.0353C1.77601 17.585 1.58621 17.12 1.42208 16.6441C1.18158 15.9466 1.00933 15.2323 0.901654 14.5027C0.788741 13.7372 0.749052 12.9672 0.783502 12.1942C0.857249 10.5391 1.24838 8.96313 1.96974 7.47024C1.98009 7.44876 1.9924 7.42806 2.00367 7.4071C2.37201 7.68834 2.74035 7.96957 3.1087 8.25107C3.63776 8.6553 4.16709 9.05954 4.69589 9.46416C5.14178 9.80539 5.58702 10.1473 6.03264 10.4889C5.97867 10.6905 5.91462 10.8891 5.86799 11.0928C5.76752 11.5312 5.70687 11.9747 5.68827 12.4243C5.65317 13.2773 5.76451 14.11 6.0278 14.9222C6.03042 14.9304 6.03081 14.9393 6.03238 14.9479H6.03225Z" fill="#FEB900"/>
</svg>
