<svg width="60" height="56" viewBox="0 0 60 56" fill="none" xmlns="http://www.w3.org/2000/svg">
<g clip-path="url(#clip0_168_210)">
<path d="M35.1444 -3.02689e-05L0 36.9935L6.92091 5.32146C7.18679 4.10947 7.66215 2.95367 8.3631 1.9263C8.58064 1.61327 9.47496 0.890897 9.85363 0.73037C11.0783 0.224708 12.3996 -0.00805664 13.721 -0.00805664H35.1363L35.1444 -3.02689e-05Z" fill="#A41C1C"/>
<path d="M59.9517 22.209C58.9285 12.4971 50.5331 13.0107 50.5331 13.0107H26.7007L5.51904 56H40.2928C40.2928 56 50.9279 56 54.4649 47.0345C58.1147 37.7801 52.2734 34.5054 52.2734 34.5054C52.2734 34.5054 60.7171 29.4488 59.9517 22.209ZM39.7852 46.0633H15.3566L22.358 38.8316H39.7771C41.7833 38.8316 43.4108 40.4529 43.4108 42.4515C43.4108 44.45 41.7833 46.0714 39.7771 46.0714L39.7852 46.0633ZM44.6758 30.0668H18.7163L22.2211 22.835H44.6758C46.6819 22.835 48.3094 24.4564 48.3094 26.4549C48.3094 28.4535 46.6819 30.0748 44.6758 30.0748V30.0668Z" fill="#ECD817"/>
<path d="M5.73649 56L30.5116 30.4119H18.7162L26.7651 13.0107L1.25684 38.8797H13.4148L5.73649 56Z" fill="#EFA954"/>
</g>
<defs>
<clipPath id="clip0_168_210">
<rect width="60" height="56" fill="white"/>
</clipPath>
</defs>
</svg>
